<svg width="278" height="318" viewBox="0 0 278 318" fill="none" xmlns="http://www.w3.org/2000/svg">
<path d="M35.3311 53.2403C62.8309 30.7403 77.8309 22.7404 106.831 12.2404C111.998 8.57369 144.531 2.14035 187.331 7.74035C240.831 14.7403 258.831 57.2403 266.331 70.7403C273.831 84.2403 296.831 179.24 220.331 232.24C143.831 285.24 68.8309 251.74 45.3309 232.24C26.5309 216.64 10.1644 173.74 4.33108 154.24C-0.168925 120.24 -0.964832 82.9372 35.3311 53.2403Z" fill="#E9412B" stroke="black" stroke-width="4"/>
<path d="M124.831 133.74C110.331 129.74 102.831 130.74 103.331 116.74L96.8309 124.24C90.3309 131.74 92.8309 120.74 89.8309 120.74C87.4309 120.74 86.4976 115.407 86.3309 112.74C76.8309 122.74 53.8309 123.74 45.8309 120.74C37.8309 117.74 21.331 102.74 17.331 99.2404C13.331 95.7404 -2.66904 97.7404 3.33096 94.7404C9.33096 91.7404 41.331 66.2404 48.831 57.7404C54.831 50.9404 68.6643 54.907 74.831 57.7404C72.331 47.2404 72.331 40.7404 80.831 32.2403C101.831 -0.759674 103.331 3.24035 121.331 1.24035C135.731 -0.359648 154.831 6.24036 150.331 14.7404C145.831 23.2403 150.331 32.2403 150.331 32.2403C159.331 24.7403 181.331 6.74033 195.331 22.2403C209.331 37.7404 233.831 35.7404 219.831 51.7403C205.831 67.7403 199.164 71.2404 191.831 76.7404C205.831 88.3404 199.998 98.907 195.331 102.74C195.331 102.74 174.831 116.74 166.831 130.74C165.591 132.911 161.331 148.24 154.831 143.24C148.331 138.24 139.331 137.74 124.831 133.74Z" fill="#6D8664" stroke="black" stroke-width="2"/>
<path d="M77.3309 88.2404C77.3309 65.7404 105.331 40.2404 130.331 39.2404C145.164 37.2404 174.031 38.5403 170.831 59.7404C167.631 80.9404 153.331 96.7404 130.331 101.74C107.331 106.74 77.3309 106.24 77.3309 88.2404Z" fill="#55714C" stroke="black" stroke-width="2"/>
<path d="M111.331 72.7404C122.831 74.7404 130.331 69.7404 133.831 64.2404" stroke="black" stroke-width="3" stroke-linecap="round"/>
<path d="M124.463 70.2365C124.737 70.716 125.348 70.8826 125.827 70.6086C126.307 70.3346 126.473 69.7237 126.199 69.2442L124.463 70.2365ZM121.347 60.9192C122.167 65.431 123.74 68.9716 124.463 70.2365L126.199 69.2442C125.589 68.1758 124.094 64.8498 123.315 60.5615L121.347 60.9192Z" fill="black"/>
<path d="M119.831 71.7404C122.831 61.2404 123.831 57.2404 119.831 53.2404" stroke="black" stroke-width="2" stroke-linecap="round"/>
<path d="M82.96 286.6C85.6533 286.6 87.7867 287.387 89.36 288.96C90.96 290.507 91.76 292.787 91.76 295.8V308H87.92V296.24C87.92 294.187 87.4267 292.64 86.44 291.6C85.4533 290.56 84.04 290.04 82.2 290.04C80.12 290.04 78.48 290.653 77.28 291.88C76.08 293.08 75.48 294.813 75.48 297.08V308H71.64V278.32H75.48V289.8C76.28 288.787 77.32 288 78.6 287.44C79.9067 286.88 81.36 286.6 82.96 286.6ZM118.627 286.8V308H114.987V304.8C114.213 305.893 113.187 306.747 111.907 307.36C110.653 307.947 109.28 308.24 107.787 308.24C104.96 308.24 102.733 307.467 101.107 305.92C99.4799 304.347 98.6666 302.04 98.6666 299V286.8H102.507V298.56C102.507 300.613 103 302.173 103.987 303.24C104.973 304.28 106.387 304.8 108.227 304.8C110.253 304.8 111.853 304.187 113.027 302.96C114.2 301.733 114.787 300 114.787 297.76V286.8H118.627ZM129.617 290.36C130.284 289.133 131.27 288.2 132.577 287.56C133.884 286.92 135.47 286.6 137.337 286.6V290.32C137.124 290.293 136.83 290.28 136.457 290.28C134.377 290.28 132.737 290.907 131.537 292.16C130.364 293.387 129.777 295.147 129.777 297.44V308H125.937V286.8H129.617V290.36ZM168.59 286.6C171.256 286.6 173.363 287.373 174.91 288.92C176.483 290.467 177.27 292.76 177.27 295.8V308H173.43V296.24C173.43 294.187 172.95 292.64 171.99 291.6C171.056 290.56 169.71 290.04 167.95 290.04C166.003 290.04 164.456 290.653 163.31 291.88C162.163 293.08 161.59 294.813 161.59 297.08V308H157.75V296.24C157.75 294.187 157.27 292.64 156.31 291.6C155.376 290.56 154.03 290.04 152.27 290.04C150.323 290.04 148.776 290.653 147.63 291.88C146.483 293.08 145.91 294.813 145.91 297.08V308H142.07V286.8H145.75V289.96C146.523 288.867 147.536 288.04 148.79 287.48C150.043 286.893 151.47 286.6 153.07 286.6C154.723 286.6 156.19 286.933 157.47 287.6C158.75 288.267 159.736 289.24 160.43 290.52C161.23 289.293 162.336 288.333 163.75 287.64C165.19 286.947 166.803 286.6 168.59 286.6ZM204.453 286.8V308H200.773V304.64C199.919 305.813 198.839 306.707 197.533 307.32C196.226 307.933 194.786 308.24 193.213 308.24C191.159 308.24 189.319 307.787 187.693 306.88C186.066 305.973 184.786 304.707 183.853 303.08C182.946 301.427 182.493 299.533 182.493 297.4C182.493 295.267 182.946 293.387 183.853 291.76C184.786 290.133 186.066 288.867 187.693 287.96C189.319 287.053 191.159 286.6 193.213 286.6C194.733 286.6 196.133 286.893 197.413 287.48C198.693 288.04 199.759 288.88 200.613 290V286.8H204.453ZM193.533 304.88C194.866 304.88 196.079 304.573 197.173 303.96C198.266 303.32 199.119 302.44 199.733 301.32C200.346 300.173 200.653 298.867 200.653 297.4C200.653 295.933 200.346 294.64 199.733 293.52C199.119 292.373 198.266 291.493 197.173 290.88C196.079 290.267 194.866 289.96 193.533 289.96C192.173 289.96 190.946 290.267 189.853 290.88C188.786 291.493 187.933 292.373 187.293 293.52C186.679 294.64 186.373 295.933 186.373 297.4C186.373 298.867 186.679 300.173 187.293 301.32C187.933 302.44 188.786 303.32 189.853 303.96C190.946 304.573 192.173 304.88 193.533 304.88Z" fill="black"/>
</svg>
