<svg width="52" height="52" viewBox="0 0 52 52" fill="none" xmlns="http://www.w3.org/2000/svg">
<path d="M7.09736 10.8749C12.1251 6.62193 14.8675 5.10975 20.1695 3.12503C21.1141 2.43195 27.0621 1.2159 34.8871 2.27443C44.6684 3.59758 47.9593 11.631 49.3305 14.1828C50.7018 16.7346 54.9068 34.6916 40.9205 44.7098C26.9341 54.7279 13.2221 48.3957 8.9256 44.7098C5.48844 41.7611 2.49618 33.652 1.42969 29.9661C0.606968 23.5394 0.461454 16.4883 7.09736 10.8749Z" fill="#E9412B" stroke="black" stroke-width="2"/>
<path d="M24.2178 26.0908C21.4769 25.3347 20.0593 25.5237 20.1538 22.8774L18.9251 24.2951C17.6965 25.7128 18.1691 23.6335 17.602 23.6335C17.1483 23.6335 16.9719 22.6254 16.9404 22.1214C15.1447 24.0116 10.7972 24.2006 9.28502 23.6335C7.77284 23.0665 4.65398 20.2311 3.89789 19.5696C3.1418 18.908 0.117448 19.286 1.25158 18.719C2.38571 18.1519 8.43442 13.3318 9.85209 11.7252C10.9862 10.4398 13.601 11.1896 14.7667 11.7252C14.2941 9.74043 14.2941 8.51179 15.9008 6.9051C19.8703 0.667383 20.1538 1.42348 23.5562 1.04543C26.2781 0.742997 29.8884 1.99054 29.0378 3.59722C28.1872 5.20391 29.0378 6.9051 29.0378 6.9051C30.739 5.48744 34.8975 2.08505 37.5438 5.01489C40.1901 7.94473 44.8212 7.56668 42.1749 10.591C39.5286 13.6154 38.2684 14.277 36.8823 15.3166C39.5286 17.5092 38.4259 19.5066 37.5438 20.2311C37.5438 20.2311 33.6689 22.8774 32.1567 25.5237C31.9223 25.934 31.1171 28.8316 29.8884 27.8865C28.6598 26.9414 26.9586 26.8469 24.2178 26.0908Z" fill="#6D8664" stroke="black"/>
<path d="M15.24 17.4898C15.24 13.2368 20.5326 8.41679 25.2582 8.22777C28.062 7.84972 33.5184 8.09545 32.9135 12.1027C32.3087 16.11 29.6057 19.0965 25.2582 20.0416C20.9106 20.9867 15.24 20.8922 15.24 17.4898Z" fill="#55714C" stroke="black"/>
<path d="M21.6658 14.5601C23.8395 14.9381 25.2572 13.993 25.9188 12.9534" stroke="black" stroke-width="2" stroke-linecap="round"/>
<path d="M23.8793 14.2419C24.0163 14.4816 24.3217 14.5649 24.5615 14.4279C24.8012 14.2909 24.8845 13.9855 24.7475 13.7457L23.8793 14.2419ZM23.2544 12.382C23.4158 13.2696 23.7252 13.9722 23.8793 14.2419L24.7475 13.7457C24.6496 13.5743 24.3793 12.979 24.2383 12.2032L23.2544 12.382Z" fill="black"/>
<path d="M23.2722 14.3711C23.8393 12.3864 24.0283 11.6303 23.2722 10.8742" stroke="black" stroke-linecap="round"/>
</svg>
